<?xml version="1.0" encoding="utf-8"?>
<!-- Generator: Adobe Illustrator 17.1.0, SVG Export Plug-In . SVG Version: 6.00 Build 0)  -->
<!DOCTYPE svg PUBLIC "-//W3C//DTD SVG 1.1//EN" "http://www.w3.org/Graphics/SVG/1.1/DTD/svg11.dtd">
<svg version="1.1" id="图层_1" xmlns="http://www.w3.org/2000/svg" xmlns:xlink="http://www.w3.org/1999/xlink" x="0px" y="0px"
	 viewBox="0 0 30 30" enable-background="new 0 0 30 30" xml:space="preserve">
<polyline fill="#0050A0" points="30,30 0,30 0,0 30,0 30,30 "/>
<g>
	<polyline fill="#FDD100" points="14.999,7.475 15.222,8.158 15.94,8.158 15.359,8.581 15.58,9.263 14.999,8.842 14.418,9.263 
		14.639,8.581 14.058,8.158 14.778,8.158 14.999,7.475 	"/>
	<polyline fill="#FDD100" points="11.644,8.369 11.867,9.053 12.585,9.051 12.004,9.474 12.227,10.158 11.646,9.737 11.063,10.16 
		11.286,9.475 10.703,9.053 11.423,9.053 11.644,8.369 	"/>
	<polyline fill="#FDD100" points="9.19,10.82 9.413,11.502 10.133,11.502 9.55,11.925 9.774,12.609 9.192,12.187 8.611,12.611 
		8.832,11.927 8.251,11.504 8.969,11.504 9.19,10.82 	"/>
	<polyline fill="#FDD100" points="18.347,8.379 18.571,9.063 19.289,9.062 18.71,9.486 18.932,10.17 18.35,9.747 17.769,10.17 
		17.991,9.487 17.407,9.065 18.127,9.063 18.347,8.379 	"/>
	<polyline fill="#FDD100" points="21.642,11.452 21.061,11.874 21.283,12.559 20.702,12.136 20.12,12.559 20.342,11.874 
		19.76,11.453 20.478,11.453 20.701,10.768 20.922,11.452 21.642,11.452 	"/>
	<polyline fill="#FDD100" points="22.568,14.817 21.984,15.237 22.203,15.921 21.624,15.497 21.04,15.916 21.264,15.234 
		20.684,14.81 21.403,14.813 21.628,14.13 21.848,14.814 22.568,14.817 	"/>
	<polyline fill="#FDD100" points="21.339,19.152 20.758,18.731 20.175,19.153 20.398,18.469 19.815,18.048 20.533,18.046 
		20.756,17.362 20.979,18.046 21.699,18.045 21.116,18.468 21.339,19.152 	"/>
	<polyline fill="#FDD100" points="14.478,22.525 14.698,21.841 14.116,21.419 14.835,21.418 15.056,20.734 15.28,21.416 
		15.997,21.415 15.417,21.839 15.642,22.522 15.059,22.102 14.478,22.525 	"/>
	<polyline fill="#FDD100" points="11.119,21.636 11.34,20.953 10.757,20.531 11.477,20.531 11.698,19.845 11.921,20.529 
		12.639,20.528 12.058,20.95 12.282,21.634 11.7,21.213 11.119,21.636 	"/>
	<polyline fill="#FDD100" points="18.886,21.621 18.305,21.195 17.721,21.616 17.946,20.932 17.367,20.508 18.085,20.511 
		18.309,19.828 18.529,20.513 19.249,20.514 18.665,20.935 18.886,21.621 	"/>
	<polyline fill="#FDD100" points="7.432,14.83 8.151,14.829 8.372,14.143 8.596,14.826 9.314,14.824 8.735,15.25 8.959,15.933 
		8.376,15.512 7.794,15.936 8.015,15.252 7.432,14.83 	"/>
	<polyline fill="#FDD100" points="8.663,19.149 8.884,18.465 8.301,18.043 9.021,18.042 9.244,17.358 9.466,18.042 10.185,18.042 
		9.604,18.465 9.826,19.147 9.244,18.726 8.663,19.149 	"/>
</g>
</svg>
