<?xml version="1.0" encoding="utf-8"?>
<!-- Generator: Adobe Illustrator 17.1.0, SVG Export Plug-In . SVG Version: 6.00 Build 0)  -->
<!DOCTYPE svg PUBLIC "-//W3C//DTD SVG 1.1//EN" "http://www.w3.org/Graphics/SVG/1.1/DTD/svg11.dtd">
<svg version="1.1" id="图层_1" xmlns="http://www.w3.org/2000/svg" xmlns:xlink="http://www.w3.org/1999/xlink" x="0px" y="0px"
	 viewBox="0 750 3000 2250" enable-background="new 0 750 3000 2250" xml:space="preserve">
<g>
	<polyline fill="#0050A0" points="3000,3000 0,3000 0,750 3000,750 3000,3000 	"/>
	<g>
		<polyline fill="#FDD100" points="1493.679,1122.75 1515.964,1191 1587.857,1191 1529.679,1233.214 1551.857,1301.411 
			1493.679,1259.277 1435.607,1301.37 1457.679,1233.221 1399.607,1191 1471.607,1191 1493.679,1122.75 		"/>
		<polyline fill="#FDD100" points="1158.214,1211.768 1180.5,1280.188 1252.286,1280.112 1194.214,1322.341 1216.5,1390.813 
			1158.429,1348.71 1100.143,1390.927 1122.429,1322.445 1064.143,1280 1136.143,1280 1158.214,1211.768 		"/>
		<polyline fill="#FDD100" points="912.857,1456.589 935.036,1525 1007.036,1525 948.857,1567.357 971.25,1635.892 
			912.964,1593.607 854.893,1636.054 876.964,1567.509 818.893,1525 890.679,1525 912.857,1456.589 		"/>
		<polyline fill="#FDD100" points="1828.5,1212.857 1850.893,1281.321 1922.679,1281.214 1864.714,1323.643 1887,1392 
			1828.714,1349.679 1770.643,1392 1792.929,1323.75 1734.536,1281.429 1806.536,1281.321 1828.5,1212.857 		"/>
		<polyline fill="#FDD100" points="2157.964,1520 2099.893,1562.393 2122.178,1630.785 2064,1588.589 2005.822,1630.812 
			2028,1562.281 1969.822,1520 2041.607,1520 2063.893,1451.536 2085.964,1520 2158,1520 		"/>
		<polyline fill="#FDD100" points="2250.643,1856.679 2192.143,1898.679 2214.107,1967.143 2156.143,1924.714 2097.75,1966.607 
			2120.143,1898.357 2062.286,1855.929 2134.072,1856.25 2156.679,1788 2178.643,1856.357 2250.643,1856.679 		"/>
		<polyline fill="#FDD100" points="2127.643,2290.179 2069.572,2248.072 2011.286,2290.286 2033.571,2221.929 1975.286,2179.822 
			2047.179,2179.607 2069.357,2111.25 2091.643,2179.607 2163.643,2179.5 2105.357,2221.822 2127.643,2290.179 		"/>
		<polyline fill="#FDD100" points="1441.607,2627.464 1463.571,2559 1405.393,2516.893 1477.286,2516.786 1499.357,2448.322 
			1521.857,2516.679 1593.536,2516.464 1535.571,2558.893 1557.964,2627.143 1499.679,2585.143 1441.607,2627.464 		"/>
		<polyline fill="#FDD100" points="1105.607,2538.536 1127.786,2470.25 1069.5,2428 1141.5,2428 1163.571,2359.464 
			1185.857,2427.839 1257.75,2427.741 1199.572,2470.068 1221.964,2538.426 1163.786,2496.321 1105.607,2538.536 		"/>
		<polyline fill="#FDD100" points="1882.393,2537.143 1824.322,2494.5 1765.929,2536.607 1788.429,2468.25 1730.464,2425.822 
			1802.357,2426.143 1824.75,2357.893 1846.714,2426.25 1918.714,2426.357 1860.322,2468.572 1882.393,2537.143 		"/>
		<polyline fill="#FDD100" points="737.036,1858.071 808.821,1857.857 831,1789.286 853.393,1857.643 925.179,1857.429 
			867.214,1899.964 889.714,1968.322 831.429,1926.107 773.143,1968.536 795.214,1900.179 737.036,1858.071 		"/>
		<polyline fill="#FDD100" points="860.036,2289.857 882.214,2221.5 823.929,2179.393 895.929,2179.179 918.214,2110.732 
			940.5,2179 1012.286,2179 954.214,2221.411 976.393,2289.705 918.214,2247.621 860.036,2289.857 		"/>
	</g>
</g>
</svg>
